<svg viewBox="0 0 18 18" fill="none" xmlns="http://www.w3.org/2000/svg">
<g clip-path="url(#clip0_6_4)">
<path d="M10.5633 4.05667L14.4788 6.24937L8.99708 9.38178L3.51535 6.24937L7.03932 4.21329M8.99708 0.73207V6.24937M8.99708 0.73207L7.43087 2.29828M8.99708 0.73207L10.5633 2.29828" stroke="#263238" stroke-width="0.859879" stroke-miterlimit="10" stroke-linecap="round" stroke-linejoin="round"/>
<path d="M13.5216 14.6053L9.63823 16.9158L9.66654 10.5586L15.1579 7.35543L15.1592 11.4535M17.2092 14.9133L12.3981 12.1356M17.2092 14.9133L16.632 12.7591M17.2092 14.9133L15.055 15.4906" stroke="#263238" stroke-width="0.859879" stroke-miterlimit="10" stroke-linecap="round" stroke-linejoin="round"/>
<path d="M4.51605 14.6051L8.39943 16.9156L8.37112 10.5583L2.87976 7.35522L2.87845 11.4533M0.828413 14.9131L5.6396 12.1354M0.828413 14.9131L1.40565 12.7588M0.828413 14.9131L2.9827 15.4904" stroke="#263238" stroke-width="0.859879" stroke-miterlimit="10" stroke-linecap="round" stroke-linejoin="round"/>
</g>
<defs>
<clipPath id="clip0_6_4">
<rect width="18" height="18" fill="white"/>
</clipPath>
</defs>
</svg>
